# xmcd CD database file
#
# Track frame offsets:
#	150
#	18082
#	40745
#	62960
#
# Disc length: 1125 seconds
#
# Revision: 0
# Processed by: cddbd v1.5.1PL0 Copyright (c) Steve Scherf et al.
# Submitted via: CDex 1.51
#
DISCID=29046304
DTITLE=Unreal - Pop Life
DYEAR=1995
DGENRE=Techno
TTITLE0=Ghost
TTITLE1=Twin Moon
TTITLE2=Pop Life
TTITLE3=Loner's Theme
EXTD=YEAR: 1995
EXTT0=
EXTT1=
EXTT2=
EXTT3=
PLAYORDER=
